# xmcd CD database file
#
# Track frame offsets:
#	150
#	20045
#	32986
#	52738
#	69480
#	101371
#	117807
#	135317
#	158041
#	171715
#	194410
#
# Disc length: 2890 seconds
#
# Revision: 0
# Processed by: cddbd v1.5.1PL0 Copyright (c) Steve Scherf et al.
# Submitted via: Feurio! 1.66 - http://www.feurio.com
#
DISCID=910b480b
DTITLE=Eric Clapton - 20th Century Masters - Best Of
DYEAR=1900
DGENRE=blues
TTITLE0=I Shot The Sheriff
TTITLE1=After Midnight
TTITLE2=Knockin On Heavens Door
TTITLE3=Wonderful Tonight
TTITLE4=Layla
TTITLE5=Cocaine
TTITLE6=Lay Down Sally
TTITLE7=Bell Bottom Blues
TTITLE8=Promises
TTITLE9=Let It Rain
TTITLE10=Let It Grow
EXTD=YEAR 2004
EXTT0=By LosEnviados.Net
EXTT1=By LosEnviados.Net
EXTT2=By LosEnviados.Net
EXTT3=By LosEnviados.Net
EXTT4=By LosEnviados.Net
EXTT5=By LosEnviados.Net
EXTT6=By LosEnviados.Net
EXTT7=By LosEnviados.Net
EXTT8=By LosEnviados.Net
EXTT9=By LosEnviados.Net
EXTT10=By LosEnviados.Net
PLAYORDER=
